<svg width="21" height="15" viewBox="0 0 21 15" fill="none" xmlns="http://www.w3.org/2000/svg">
<path d="M1 6.36426C0.447715 6.36426 0 6.81197 0 7.36426C0 7.91654 0.447715 8.36426 1 8.36426V7.36426V6.36426ZM20.7071 8.07136C21.0976 7.68084 21.0976 7.04768 20.7071 6.65715L14.3431 0.29319C13.9526 -0.0973344 13.3195 -0.0973344 12.9289 0.29319C12.5384 0.683714 12.5384 1.31688 12.9289 1.7074L18.5858 7.36426L12.9289 13.0211C12.5384 13.4116 12.5384 14.0448 12.9289 14.4353C13.3195 14.8259 13.9526 14.8259 14.3431 14.4353L20.7071 8.07136ZM1 7.36426V8.36426H20V7.36426V6.36426H1V7.36426Z" fill="#F9F7F4"/>
</svg>
